{
  "accessors": [
    {
      "bufferView": 2,
      "componentType": 5126,
      "count": 44081,
      "max": [
        1.0138509273529053,
        0.9999141693115234,
        0.999906063079834
      ],
      "min": [
        -0.9999141693115234,
        -0.999216616153717,
        -0.9999141693115234
      ],
      "type": "VEC3"
    },
    {
      "bufferView": 2,
      "byteOffset": 528972,
      "componentType": 5126,
      "count": 44081,
      "max": [
        1.0,
        1.0,
        1.0
      ],
      "min": [
        -1.0,
        -0.9999942779541016,
        -1.0
      ],
      "type": "VEC3"
    },
    {
      "bufferView": 1,
      "componentType": 5126,
      "count": 44081,
      "max": [
        0.9900000095367432,
        1.0
      ],
      "min": [
        0.010000020265579224,
        0.0
      ],
      "type": "VEC2"
    },
    {
      "bufferView": 0,
      "componentType": 5125,
      "count": 229968,
      "type": "SCALAR"
    },
    {
      "bufferView": 2,
      "byteOffset": 1057944,
      "componentType": 5126,
      "count": 521,
      "max": [
        0.9383655786514282,
        1.0204689502716064,
        0.938366174697876
      ],
      "min": [
        -0.9257563948631287,
        -0.8498263359069824,
        -0.9383662343025208
      ],
      "type": "VEC3"
    },
    {
      "bufferView": 2,
      "byteOffset": 1064196,
      "componentType": 5126,
      "count": 521,
      "max": [
        0.7438356876373291,
        0.7386876940727234,
        0.9986328482627869
      ],
      "min": [
        -0.7438356876373291,
        -1.0,
        -0.9990972280502319
      ],
      "type": "VEC3"
    },
    {
      "bufferView": 1,
      "byteOffset": 352648,
      "componentType": 5126,
      "count": 521,
      "max": [
        0.9900000095367432,
        0.7423074245452881
      ],
      "min": [
        0.0,
        0.0
      ],
      "type": "VEC2"
    },
    {
      "bufferView": 0,
      "byteOffset": 919872,
      "componentType": 5125,
      "count": 2460,
      "type": "SCALAR"
    },
    {
      "bufferView": 2,
      "byteOffset": 1070448,
      "componentType": 5126,
      "count": 1172,
      "max": [
        1.0137808322906494,
        1.1829595565795898,
        0.999906063079834
      ],
      "min": [
        -0.9899275302886963,
        -1.1795217990875244,
        -0.9996693134307861
      ],
      "type": "VEC3"
    },
    {
      "bufferView": 2,
      "byteOffset": 1084512,
      "componentType": 5126,
      "count": 1172,
      "max": [
        0.9999997615814209,
        0.9238542318344116,
        1.0
      ],
      "min": [
        -0.9954824447631836,
        -0.9999942779541016,
        -0.9987190365791321
      ],
      "type": "VEC3"
    },
    {
      "bufferView": 1,
      "byteOffset": 356816,
      "componentType": 5126,
      "count": 1172,
      "max": [
        1.0,
        1.0
      ],
      "min": [
        0.0,
        0.009999975562095642
      ],
      "type": "VEC2"
    },
    {
      "bufferView": 0,
      "byteOffset": 929712,
      "componentType": 5125,
      "count": 3912,
      "type": "SCALAR"
    },
    {
      "bufferView": 2,
      "byteOffset": 1098576,
      "componentType": 5126,
      "count": 64,
      "max": [
        0.31014031171798706,
        1.0303921699523926,
        -0.5372287034988403
      ],
      "min": [
        -0.311443030834198,
        -1.018527865409851,
        -0.9881860017776489
      ],
      "type": "VEC3"
    },
    {
      "bufferView": 2,
      "byteOffset": 1099344,
      "componentType": 5126,
      "count": 64,
      "max": [
        0.7438356876373291,
        0.6955073475837708,
        0.7185190320014954
      ],
      "min": [
        -0.7438356876373291,
        -0.6955073475837708,
        -0.7185190320014954
      ],
      "type": "VEC3"
    },
    {
      "bufferView": 1,
      "byteOffset": 366192,
      "componentType": 5126,
      "count": 64,
      "max": [
        0.9383819699287415,
        0.9485331773757935
      ],
      "min": [
        0.053152795881032944,
        0.050019390881061554
      ],
      "type": "VEC2"
    },
    {
      "bufferView": 0,
      "byteOffset": 945360,
      "componentType": 5125,
      "count": 180,
      "type": "SCALAR"
    },
    {
      "bufferView": 2,
      "byteOffset": 1100112,
      "componentType": 5126,
      "count": 32,
      "max": [
        0.31014031171798706,
        1.1829595565795898,
        -0.5372287034988403
      ],
      "min": [
        -0.311443030834198,
        1.1829595565795898,
        -0.8681986331939697
      ],
      "type": "VEC3"
    },
    {
      "bufferView": 2,
      "byteOffset": 1100496,
      "componentType": 5126,
      "count": 32,
      "max": [
        0.9730852246284485,
        0.23045271635055542,
        0.9977763295173645
      ],
      "min": [
        -0.9730835556983948,
        0.06665270030498505,
        -0.9977763295173645
      ],
      "type": "VEC3"
    },
    {
      "bufferView": 1,
      "byteOffset": 366704,
      "componentType": 5126,
      "count": 32,
      "max": [
        0.0,
        0.0
      ],
      "min": [
        0.0,
        0.0
      ],
      "type": "VEC2"
    },
    {
      "bufferView": 0,
      "byteOffset": 946080,
      "componentType": 5125,
      "count": 90,
      "type": "SCALAR"
    }
  ],
  "asset": {
    "extras": {
      "author": "ATK-G (https://sketchfab.com/ATK-G)",
      "license": "CC-BY-4.0 (http://creativecommons.org/licenses/by/4.0/)",
      "source": "https://sketchfab.com/3d-models/a1-smart-phone-37cb784c65be42f69fbb5fd666e18327",
      "title": "A1 Smart Phone"
    },
    "generator": "Sketchfab-12.68.0",
    "version": "2.0"
  },
  "bufferViews": [
    {
      "buffer": 0,
      "byteLength": 946440,
      "name": "floatBufferViews",
      "target": 34963
    },
    {
      "buffer": 0,
      "byteLength": 366960,
      "byteOffset": 946440,
      "byteStride": 8,
      "name": "floatBufferViews",
      "target": 34962
    },
    {
      "buffer": 0,
      "byteLength": 1100880,
      "byteOffset": 1313400,
      "byteStride": 12,
      "name": "floatBufferViews",
      "target": 34962
    }
  ],
  "buffers": [
    {
      "byteLength": 2414280,
      "uri": "scene.bin"
    }
  ],
  "extensionsUsed": [
    "KHR_materials_clearcoat"
  ],
  "images": [
    {
      "uri": "textures/CAMERS_baseColor.png"
    },
    {
      "uri": "textures/CAMERS_clearcoat_normal.png"
    }
  ],
  "materials": [
    {
      "doubleSided": true,
      "name": "Material",
      "pbrMetallicRoughness": {
        "baseColorFactor": [
          0.7999999999999999,
          0.0016884200000000015,
          0.0,
          1.0
        ],
        "metallicFactor": 0.631818,
        "roughnessFactor": 0.0681818
      }
    },
    {
      "doubleSided": true,
      "name": "Screen",
      "pbrMetallicRoughness": {
        "baseColorFactor": [
          0.0,
          0.0,
          0.0,
          1.0
        ],
        "metallicFactor": 0.390909,
        "roughnessFactor": 0.0
      }
    },
    {
      "doubleSided": true,
      "name": "BlackPlastic",
      "pbrMetallicRoughness": {
        "baseColorFactor": [
          0.0,
          0.0,
          0.0,
          1.0
        ],
        "metallicFactor": 0.0,
        "roughnessFactor": 0.5
      }
    },
    {
      "doubleSided": true,
      "extensions": {
        "KHR_materials_clearcoat": {
          "clearcoatFactor": 1.0,
          "clearcoatNormalTexture": {
            "index": 1,
            "scale": 0.1780350704388061
          },
          "clearcoatRoughnessFactor": 0.0
        }
      },
      "name": "CAMERS",
      "pbrMetallicRoughness": {
        "baseColorTexture": {
          "index": 0
        },
        "metallicFactor": 0.709091,
        "roughnessFactor": 0.0
      }
    },
    {
      "name": "gLASS",
      "pbrMetallicRoughness": {
        "baseColorFactor": [
          0.8,
          0.8,
          0.8,
          1.0
        ],
        "roughnessFactor": 0.0
      }
    }
  ],
  "meshes": [
    {
      "name": "Object_0",
      "primitives": [
        {
          "attributes": {
            "NORMAL": 1,
            "POSITION": 0,
            "TEXCOORD_0": 2
          },
          "indices": 3,
          "material": 0,
          "mode": 4
        }
      ]
    },
    {
      "name": "Object_1",
      "primitives": [
        {
          "attributes": {
            "NORMAL": 5,
            "POSITION": 4,
            "TEXCOORD_0": 6
          },
          "indices": 7,
          "material": 1,
          "mode": 4
        }
      ]
    },
    {
      "name": "Object_2",
      "primitives": [
        {
          "attributes": {
            "NORMAL": 9,
            "POSITION": 8,
            "TEXCOORD_0": 10
          },
          "indices": 11,
          "material": 2,
          "mode": 4
        }
      ]
    },
    {
      "name": "Object_3",
      "primitives": [
        {
          "attributes": {
            "NORMAL": 13,
            "POSITION": 12,
            "TEXCOORD_0": 14
          },
          "indices": 15,
          "material": 3,
          "mode": 4
        }
      ]
    },
    {
      "name": "Object_4",
      "primitives": [
        {
          "attributes": {
            "NORMAL": 17,
            "POSITION": 16,
            "TEXCOORD_0": 18
          },
          "indices": 19,
          "material": 4,
          "mode": 4
        }
      ]
    }
  ],
  "nodes": [
    {
      "children": [
        1
      ],
      "matrix": [
        1.0,
        0.0,
        0.0,
        0.0,
        0.0,
        2.220446049250313e-16,
        -1.0,
        0.0,
        0.0,
        1.0,
        2.220446049250313e-16,
        0.0,
        0.0,
        0.0,
        0.0,
        1.0
      ],
      "name": "Sketchfab_model"
    },
    {
      "children": [
        2
      ],
      "name": "root"
    },
    {
      "children": [
        3
      ],
      "matrix": [
        1.0,
        0.0,
        0.0,
        0.0,
        0.0,
        2.220446049250313e-16,
        1.0,
        0.0,
        0.0,
        -1.0,
        2.220446049250313e-16,
        0.0,
        0.0,
        0.0,
        0.0,
        1.0
      ],
      "name": "GLTF_SceneRootNode"
    },
    {
      "children": [
        4,
        5,
        6,
        7,
        8
      ],
      "matrix": [
        1.0,
        0.0,
        0.0,
        0.0,
        0.0,
        0.0,
        0.055006276816129684,
        0.0,
        0.0,
        -1.8780664205551147,
        0.0,
        0.0,
        0.0,
        0.0,
        0.0,
        1.0
      ],
      "name": "Cube_0"
    },
    {
      "mesh": 0,
      "name": "Object_4"
    },
    {
      "mesh": 1,
      "name": "Object_5"
    },
    {
      "mesh": 2,
      "name": "Object_6"
    },
    {
      "mesh": 3,
      "name": "Object_7"
    },
    {
      "mesh": 4,
      "name": "Object_8"
    }
  ],
  "samplers": [
    {
      "magFilter": 9729,
      "minFilter": 9987,
      "wrapS": 10497,
      "wrapT": 10497
    }
  ],
  "scene": 0,
  "scenes": [
    {
      "name": "Sketchfab_Scene",
      "nodes": [
        0
      ]
    }
  ],
  "textures": [
    {
      "sampler": 0,
      "source": 0
    },
    {
      "sampler": 0,
      "source": 1
    }
  ]
}
