{
  "accessors": [
    {
      "bufferView": 2,
      "componentType": 5126,
      "count": 784,
      "max": [
        1.0186140537261963,
        1.0,
        1.0
      ],
      "min": [
        -1.0,
        -1.0,
        -1.19545316696167
      ],
      "type": "VEC3"
    },
    {
      "bufferView": 2,
      "byteOffset": 9408,
      "componentType": 5126,
      "count": 784,
      "max": [
        1.0,
        1.0,
        1.0
      ],
      "min": [
        -1.0,
        -1.0,
        -1.0
      ],
      "type": "VEC3"
    },
    {
      "bufferView": 1,
      "componentType": 5126,
      "count": 784,
      "max": [
        1.0,
        1.0
      ],
      "min": [
        0.0,
        0.0
      ],
      "type": "VEC2"
    },
    {
      "bufferView": 0,
      "componentType": 5125,
      "count": 1371,
      "type": "SCALAR"
    },
    {
      "bufferView": 2,
      "byteOffset": 18816,
      "componentType": 5126,
      "count": 28,
      "max": [
        0.9843841791152954,
        0.9843841791152954,
        1.0
      ],
      "min": [
        -0.9843841791152954,
        -0.9843841791152954,
        1.0
      ],
      "type": "VEC3"
    },
    {
      "bufferView": 2,
      "byteOffset": 19152,
      "componentType": 5126,
      "count": 28,
      "max": [
        0.0,
        0.0,
        1.0
      ],
      "min": [
        0.0,
        0.0,
        1.0
      ],
      "type": "VEC3"
    },
    {
      "bufferView": 1,
      "byteOffset": 6272,
      "componentType": 5126,
      "count": 28,
      "max": [
        0.8730033040046692,
        0.7547871470451355
      ],
      "min": [
        0.6266642212867737,
        0.34229663014411926
      ],
      "type": "VEC2"
    },
    {
      "bufferView": 0,
      "byteOffset": 5484,
      "componentType": 5125,
      "count": 78,
      "type": "SCALAR"
    },
    {
      "bufferView": 2,
      "byteOffset": 19488,
      "componentType": 5126,
      "count": 110,
      "max": [
        0.8457202911376953,
        -0.4631413221359253,
        -1.0275557041168213
      ],
      "min": [
        0.5860282182693481,
        -0.8922843337059021,
        -1.19545316696167
      ],
      "type": "VEC3"
    },
    {
      "bufferView": 2,
      "byteOffset": 20808,
      "componentType": 5126,
      "count": 110,
      "max": [
        4.570668465930794e-08,
        0.0,
        1.0
      ],
      "min": [
        -0.017204463481903076,
        -0.3393295705318451,
        -1.0
      ],
      "type": "VEC3"
    },
    {
      "bufferView": 1,
      "byteOffset": 6496,
      "componentType": 5126,
      "count": 110,
      "max": [
        0.875,
        0.75
      ],
      "min": [
        0.010000228881835938,
        0.01000000536441803
      ],
      "type": "VEC2"
    },
    {
      "bufferView": 0,
      "byteOffset": 5796,
      "componentType": 5125,
      "count": 201,
      "type": "SCALAR"
    }
  ],
  "asset": {
    "extras": {
      "author": "BadduCoder (https://sketchfab.com/BadduCoder)",
      "license": "CC-BY-4.0 (http://creativecommons.org/licenses/by/4.0/)",
      "source": "https://sketchfab.com/3d-models/minimal-smart-phone-b71ba4c82aea4a949ade4c347340037b",
      "title": "Minimal Smart Phone"
    },
    "generator": "Sketchfab-12.65.0",
    "version": "2.0"
  },
  "bufferViews": [
    {
      "buffer": 0,
      "byteLength": 6600,
      "name": "floatBufferViews",
      "target": 34963
    },
    {
      "buffer": 0,
      "byteLength": 7376,
      "byteOffset": 6600,
      "byteStride": 8,
      "name": "floatBufferViews",
      "target": 34962
    },
    {
      "buffer": 0,
      "byteLength": 22128,
      "byteOffset": 13976,
      "byteStride": 12,
      "name": "floatBufferViews",
      "target": 34962
    }
  ],
  "buffers": [
    {
      "byteLength": 36104,
      "uri": "scene.bin"
    }
  ],
  "materials": [
    {
      "doubleSided": true,
      "name": "Metallic_phone",
      "pbrMetallicRoughness": {
        "baseColorFactor": [
          0.00213565,
          0.00257946,
          0.00208546,
          1.0
        ],
        "metallicFactor": 0.0,
        "roughnessFactor": 0.9994522887455464
      }
    },
    {
      "doubleSided": true,
      "emissiveFactor": [
        0.149061,
        0.635647,
        1.0
      ],
      "name": "Screen",
      "pbrMetallicRoughness": {
        "baseColorFactor": [
          0.0424693,
          0.15501,
          0.288296,
          1.0
        ],
        "metallicFactor": 0.0,
        "roughnessFactor": 0.9685369367577705
      }
    },
    {
      "doubleSided": true,
      "name": "Camera",
      "pbrMetallicRoughness": {
        "baseColorFactor": [
          0.0,
          0.0,
          0.0,
          1.0
        ],
        "metallicFactor": 0.0
      }
    }
  ],
  "meshes": [
    {
      "name": "Cube_Metallic phone_0",
      "primitives": [
        {
          "attributes": {
            "NORMAL": 1,
            "POSITION": 0,
            "TEXCOORD_0": 2
          },
          "indices": 3,
          "material": 0,
          "mode": 4
        }
      ]
    },
    {
      "name": "Cube_Screen_0",
      "primitives": [
        {
          "attributes": {
            "NORMAL": 5,
            "POSITION": 4,
            "TEXCOORD_0": 6
          },
          "indices": 7,
          "material": 1,
          "mode": 4
        }
      ]
    },
    {
      "name": "Cube_Camera_0",
      "primitives": [
        {
          "attributes": {
            "NORMAL": 9,
            "POSITION": 8,
            "TEXCOORD_0": 10
          },
          "indices": 11,
          "material": 2,
          "mode": 4
        }
      ]
    }
  ],
  "nodes": [
    {
      "children": [
        1
      ],
      "matrix": [
        1.0,
        0.0,
        0.0,
        0.0,
        0.0,
        2.220446049250313e-16,
        -1.0,
        0.0,
        0.0,
        1.0,
        2.220446049250313e-16,
        0.0,
        0.0,
        0.0,
        0.0,
        1.0
      ],
      "name": "Sketchfab_model"
    },
    {
      "children": [
        2
      ],
      "matrix": [
        1.0,
        0.0,
        0.0,
        0.0,
        0.0,
        0.0,
        1.0,
        0.0,
        0.0,
        -1.0,
        0.0,
        0.0,
        0.0,
        0.0,
        0.0,
        1.0
      ],
      "name": "e04df3af46314ce68bc2c37460bdd76f.fbx"
    },
    {
      "children": [
        3
      ],
      "name": "RootNode"
    },
    {
      "children": [
        4,
        5,
        6
      ],
      "matrix": [
        419.3879089355452,
        3.6664056815569224e-05,
        -0.0,
        -0.0,
        3.360826017909721e-12,
        -3.844336718103513e-05,
        879.4816894531241,
        -0.0,
        -2.9731071940468486e-06,
        34.008380889892415,
        1.4865536024923925e-06,
        -0.0,
        0.0,
        0.0,
        0.0,
        1.0
      ],
      "name": "Cube"
    },
    {
      "mesh": 0,
      "name": "Cube_Metallic phone_0"
    },
    {
      "mesh": 1,
      "name": "Cube_Screen_0"
    },
    {
      "mesh": 2,
      "name": "Cube_Camera_0"
    }
  ],
  "scene": 0,
  "scenes": [
    {
      "name": "Sketchfab_Scene",
      "nodes": [
        0
      ]
    }
  ]
}
