{
  "accessors": [
    {
      "bufferView": 1,
      "componentType": 5126,
      "count": 272,
      "max": [
        0.10809499770402908,
        0.00025400001322850585,
        0.06030099838972092
      ],
      "min": [
        0.10355400294065475,
        -0.00025400001322850585,
        0.055759500712156296
      ],
      "type": "VEC3"
    },
    {
      "bufferView": 1,
      "byteOffset": 3264,
      "componentType": 5126,
      "count": 272,
      "max": [
        0.9998995661735535,
        1.0,
        0.999876081943512
      ],
      "min": [
        -0.999876081943512,
        -1.0,
        -0.999876081943512
      ],
      "type": "VEC3"
    },
    {
      "bufferView": 0,
      "componentType": 5125,
      "count": 804,
      "type": "SCALAR"
    },
    {
      "bufferView": 1,
      "byteOffset": 6528,
      "componentType": 5126,
      "count": 272,
      "max": [
        0.11126399785280228,
        -0.00025400001322850585,
        0.0784481018781662
      ],
      "min": [
        0.10038500279188156,
        -0.002006599912419915,
        0.06756860017776489
      ],
      "type": "VEC3"
    },
    {
      "bufferView": 1,
      "byteOffset": 9792,
      "componentType": 5126,
      "count": 272,
      "max": [
        0.9998856782913208,
        1.0,
        0.9998758435249329
      ],
      "min": [
        -0.9998756051063538,
        -1.0,
        -0.9998758435249329
      ],
      "type": "VEC3"
    },
    {
      "bufferView": 0,
      "byteOffset": 3216,
      "componentType": 5125,
      "count": 804,
      "type": "SCALAR"
    },
    {
      "bufferView": 1,
      "byteOffset": 13056,
      "componentType": 5126,
      "count": 224,
      "max": [
        0.1162249967455864,
        0.0034797999542206526,
        0.08340819925069809
      ],
      "min": [
        -0.10855899751186371,
        0.0033019999973475933,
        -0.0842394009232521
      ],
      "type": "VEC3"
    },
    {
      "bufferView": 1,
      "byteOffset": 15744,
      "componentType": 5126,
      "count": 224,
      "max": [
        0.9999998807907104,
        1.0,
        0.9999998807907104
      ],
      "min": [
        -0.9999999403953552,
        -1.0,
        -1.0
      ],
      "type": "VEC3"
    },
    {
      "bufferView": 0,
      "byteOffset": 6432,
      "componentType": 5125,
      "count": 660,
      "type": "SCALAR"
    },
    {
      "bufferView": 1,
      "byteOffset": 18432,
      "componentType": 5126,
      "count": 1614,
      "max": [
        0.11749500036239624,
        0.0033019999973475933,
        0.08340819925069809
      ],
      "min": [
        -0.10855899751186371,
        -0.002235200023278594,
        -0.0842394009232521
      ],
      "type": "VEC3"
    },
    {
      "bufferView": 1,
      "byteOffset": 37800,
      "componentType": 5126,
      "count": 1614,
      "max": [
        1.0,
        1.0,
        1.0
      ],
      "min": [
        -1.0,
        -1.0,
        -1.0
      ],
      "type": "VEC3"
    },
    {
      "bufferView": 0,
      "byteOffset": 9072,
      "componentType": 5125,
      "count": 4734,
      "type": "SCALAR"
    },
    {
      "bufferView": 1,
      "byteOffset": 57168,
      "componentType": 5126,
      "count": 252,
      "max": [
        0.10649800300598145,
        0.00025400001322850585,
        0.06498800218105316
      ],
      "min": [
        0.10521599650382996,
        -0.0001879600022220984,
        0.06226259842514992
      ],
      "type": "VEC3"
    },
    {
      "bufferView": 1,
      "byteOffset": 60192,
      "componentType": 5126,
      "count": 252,
      "max": [
        1.0,
        1.0,
        1.0
      ],
      "min": [
        -1.0,
        -1.0,
        -1.0
      ],
      "type": "VEC3"
    },
    {
      "bufferView": 0,
      "byteOffset": 28008,
      "componentType": 5125,
      "count": 480,
      "type": "SCALAR"
    },
    {
      "bufferView": 1,
      "byteOffset": 63216,
      "componentType": 5126,
      "count": 96,
      "max": [
        0.021962199360132217,
        -5.551119910433578e-20,
        0.016204899176955223
      ],
      "min": [
        -0.01018620003014803,
        -0.00025400001322850585,
        -0.01594349928200245
      ],
      "type": "VEC3"
    },
    {
      "bufferView": 1,
      "byteOffset": 64368,
      "componentType": 5126,
      "count": 96,
      "max": [
        1.0,
        1.0,
        1.0
      ],
      "min": [
        -1.0,
        -1.0,
        -1.0
      ],
      "type": "VEC3"
    },
    {
      "bufferView": 0,
      "byteOffset": 29928,
      "componentType": 5125,
      "count": 144,
      "type": "SCALAR"
    }
  ],
  "asset": {
    "extras": {
      "author": "Micah Sturtevant (https://sketchfab.com/micahs)",
      "license": "CC-BY-4.0 (http://creativecommons.org/licenses/by/4.0/)",
      "source": "https://sketchfab.com/3d-models/microsoft-tablet-f046635a55be422eaf84e069e87c5ce3",
      "title": "Microsoft Tablet"
    },
    "generator": "Sketchfab-12.67.0",
    "version": "2.0"
  },
  "bufferViews": [
    {
      "buffer": 0,
      "byteLength": 30504,
      "name": "floatBufferViews",
      "target": 34963
    },
    {
      "buffer": 0,
      "byteLength": 65520,
      "byteOffset": 30504,
      "byteStride": 12,
      "name": "floatBufferViews",
      "target": 34962
    }
  ],
  "buffers": [
    {
      "byteLength": 96024,
      "uri": "scene.bin"
    }
  ],
  "materials": [
    {
      "doubleSided": true,
      "name": "Material0_3",
      "pbrMetallicRoughness": {
        "baseColorFactor": [
          0.498039,
          0.498039,
          0.498039,
          1.0
        ],
        "metallicFactor": 0.0,
        "roughnessFactor": 0.6
      }
    },
    {
      "doubleSided": true,
      "name": "Material0",
      "pbrMetallicRoughness": {
        "baseColorFactor": [
          0.972549,
          0.972549,
          0.972549,
          1.0
        ],
        "metallicFactor": 0.0,
        "roughnessFactor": 0.6
      }
    },
    {
      "doubleSided": true,
      "name": "Material0_4",
      "pbrMetallicRoughness": {
        "baseColorFactor": [
          0.0,
          0.0,
          0.0,
          1.0
        ],
        "metallicFactor": 0.0,
        "roughnessFactor": 0.6
      }
    },
    {
      "doubleSided": true,
      "name": "Material0_0",
      "pbrMetallicRoughness": {
        "baseColorFactor": [
          0.0,
          0.0,
          0.0,
          1.0
        ],
        "metallicFactor": 0.0,
        "roughnessFactor": 0.6
      }
    },
    {
      "doubleSided": true,
      "name": "Material0_1",
      "pbrMetallicRoughness": {
        "baseColorFactor": [
          0.0,
          0.0,
          0.0,
          1.0
        ],
        "metallicFactor": 0.0,
        "roughnessFactor": 0.6
      }
    },
    {
      "doubleSided": true,
      "name": "Material0_2",
      "pbrMetallicRoughness": {
        "baseColorFactor": [
          0.937255,
          0.921569,
          0.921569,
          1.0
        ],
        "metallicFactor": 0.0,
        "roughnessFactor": 0.6
      }
    }
  ],
  "meshes": [
    {
      "name": "Material0",
      "primitives": [
        {
          "attributes": {
            "NORMAL": 1,
            "POSITION": 0
          },
          "indices": 2,
          "material": 1,
          "mode": 4
        }
      ]
    },
    {
      "name": "Material0",
      "primitives": [
        {
          "attributes": {
            "NORMAL": 4,
            "POSITION": 3
          },
          "indices": 5,
          "material": 3,
          "mode": 4
        }
      ]
    },
    {
      "name": "Material0",
      "primitives": [
        {
          "attributes": {
            "NORMAL": 7,
            "POSITION": 6
          },
          "indices": 8,
          "material": 4,
          "mode": 4
        }
      ]
    },
    {
      "name": "Material0",
      "primitives": [
        {
          "attributes": {
            "NORMAL": 10,
            "POSITION": 9
          },
          "indices": 11,
          "material": 5,
          "mode": 4
        }
      ]
    },
    {
      "name": "Material0",
      "primitives": [
        {
          "attributes": {
            "NORMAL": 13,
            "POSITION": 12
          },
          "indices": 14,
          "material": 0,
          "mode": 4
        }
      ]
    },
    {
      "name": "Material0",
      "primitives": [
        {
          "attributes": {
            "NORMAL": 16,
            "POSITION": 15
          },
          "indices": 17,
          "material": 2,
          "mode": 4
        }
      ]
    }
  ],
  "nodes": [
    {
      "children": [
        1
      ],
      "matrix": [
        1.0,
        0.0,
        0.0,
        0.0,
        0.0,
        2.220446049250313e-16,
        -1.0,
        0.0,
        0.0,
        1.0,
        2.220446049250313e-16,
        0.0,
        0.0,
        0.0,
        0.0,
        1.0
      ],
      "name": "Sketchfab_model"
    },
    {
      "children": [
        2
      ],
      "name": "Collada visual scene group"
    },
    {
      "children": [
        3,
        4,
        5,
        6,
        7,
        8
      ],
      "name": "5e0d718cf5c20c14a99c8d74"
    },
    {
      "mesh": 0,
      "name": "Material0"
    },
    {
      "mesh": 1,
      "name": "Material0"
    },
    {
      "mesh": 2,
      "name": "Material0"
    },
    {
      "mesh": 3,
      "name": "Material0"
    },
    {
      "mesh": 4,
      "name": "Material0"
    },
    {
      "mesh": 5,
      "name": "Material0"
    }
  ],
  "scene": 0,
  "scenes": [
    {
      "name": "Sketchfab_Scene",
      "nodes": [
        0
      ]
    }
  ]
}
